<svg width="137px" height="55px" viewBox="0 0 137 55" version="1.1" xmlns="http://www.w3.org/2000/svg" xmlns:xlink="http://www.w3.org/1999/xlink">
  <g id="Page-1" stroke="none" stroke-width="1" fill="none" fill-rule="evenodd">
    <g id="Desktop-HD-Copy-4" transform="translate(-150.000000, -59.000000)">
      <g id="Group" transform="translate(150.000000, 59.000000)">
        <polygon id="Fill-2" fill="#93F4EA" points="19.494756 49.0018931 20.0645027 49.0018931 20.0645027 54.9028888 19.494756 54.9028888"></polygon>
        <polygon id="Fill-3" fill="#93F4EA" points="25.983401 49.0018931 26.5201087 49.0018931 30.4042978 53.9142477 30.4042978 49.0018931 30.9564705 49.0018931 30.9564705 54.9028888 30.5100928 54.9028888 26.5366282 49.8853597 26.5366282 54.9028888 25.983401 54.9028888"></polygon>
        <polygon id="Fill-4" fill="#93F4EA" points="38.3825087 49.5291684 36.3590469 49.5291684 36.3590469 49.0018931 40.9665788 49.0018931 40.9665788 49.5291684 38.9512009 49.5291684 38.9512009 54.9028888 38.3825087 54.9028888"></polygon>
        <polygon id="Fill-5" fill="#93F4EA" points="46.3677492 49.0018931 50.6185304 49.0018931 50.6185304 49.5207545 46.9374958 49.5207545 46.9374958 51.6684196 50.2354188 51.6684196 50.2354188 52.1872809 46.9374958 52.1872809 46.9374958 54.3840275 50.6582474 54.3840275 50.6582474 54.9028888 46.3677492 54.9028888"></polygon>
        <g id="Group-21">
          <path d="M58.6448938,52.033726 C59.5784208,52.033726 60.2620465,51.5628944 60.2620465,50.7604123 L60.2620465,50.7453373 C60.2620465,49.9905343 59.6761318,49.5207545 58.6614133,49.5207545 L56.7500731,49.5207545 L56.7500731,52.033726 L58.6448938,52.033726 Z M56.1817324,49.0018931 L58.7011304,49.0018931 C59.4413441,49.0018931 60.0177689,49.2290703 60.3748711,49.5852615 C60.6588657,49.8688823 60.8307387,50.2671435 60.8307387,50.7204459 L60.8307387,50.7369233 C60.8307387,51.7094377 60.1316479,52.2928061 59.1640276,52.4474127 L61.0419773,54.9028888 L60.343238,54.9028888 L58.5461283,52.5448745 L56.7500731,52.5448745 L56.7500731,54.9028888 L56.1817324,54.9028888 L56.1817324,49.0018931 Z" id="Fill-6" fill="#93F4EA"></path>
          <path d="M70.3603758,52.788529 L68.9228287,49.6017389 L67.4757916,52.788529 L70.3603758,52.788529 Z M68.6620316,48.9622774 L69.1973334,48.9622774 L71.919886,54.9028888 L71.3037441,54.9028888 L70.5881339,53.2993269 L67.2480335,53.2993269 L66.5243392,54.9028888 L65.939479,54.9028888 L68.6620316,48.9622774 Z" id="Fill-7" fill="#93F4EA"></path>
          <path d="M76.6718756,51.9681672 L76.6718756,51.9530921 C76.6718756,50.2920348 77.923842,48.9047819 79.6471412,48.9047819 C80.7110667,48.9047819 81.3454854,49.2935773 81.9535433,49.83733 L81.5651595,50.2590801 C81.0530553,49.7728229 80.4833086,49.4155799 79.6387057,49.4155799 C78.2728602,49.4155799 77.2651713,50.5262235 77.2651713,51.9366148 L77.2651713,51.9530921 C77.2651713,53.3718973 78.3055477,54.4892021 79.6471412,54.4892021 C80.4667891,54.4892021 81.0284518,54.1659655 81.6133121,53.6060861 L81.9865822,53.9717431 C81.3620049,54.5947272 80.6945472,55 79.6225377,55 C77.9322775,55 76.6718756,53.6621792 76.6718756,51.9681672" id="Fill-8" fill="#93F4EA"></path>
          <polygon id="Fill-9" fill="#93F4EA" points="88.9240652 49.5291684 86.9006034 49.5291684 86.9006034 49.0018931 91.5095412 49.0018931 91.5095412 49.5291684 89.4927575 49.5291684 89.4927575 54.9028888 88.9240652 54.9028888"></polygon>
          <polygon id="Fill-10" fill="#93F4EA" points="96.9655423 49.0018931 97.535289 49.0018931 97.535289 54.9028888 96.9655423 54.9028888"></polygon>
          <polygon id="Fill-11" fill="#93F4EA" points="102.951924 49.0018931 103.576502 49.0018931 105.779921 54.2388866 107.990369 49.0018931 108.591749 49.0018931 106.023144 54.9439069 105.519124 54.9439069"></polygon>
          <polygon id="Fill-12" fill="#93F4EA" points="113.945118 49.0018931 118.194493 49.0018931 118.194493 49.5207545 114.513459 49.5207545 114.513459 51.6684196 117.812788 51.6684196 117.812788 52.1872809 114.513459 52.1872809 114.513459 54.3840275 118.235616 54.3840275 118.235616 54.9028888 113.945118 54.9028888"></polygon>
          <g id="Group-14">
            <path d="M19.0568138,32.1396017 C17.9584434,33.4570888 16.4991046,34.11443 14.67704,34.11443 C13.7062563,34.11443 12.8265056,33.9103912 12.0258375,33.5051185 C11.2255209,33.0942364 10.6009436,32.5560931 10.1559718,31.8892862 C9.71099999,31.2235311 9.43087162,30.6100126 9.31699258,30.0525873 C9.20873719,29.495162 9.15214915,28.436755 9.15214915,26.8794699 L9.15214915,26.4920768 C9.15214915,25.1938718 9.22771703,24.2010237 9.37463505,23.5121301 C9.52577082,22.8274436 9.78656788,22.2044594 10.1559718,21.6470341 C11.1211318,20.1637218 12.6121037,19.4229421 14.6193975,19.4229421 C16.4428681,19.4229421 17.9102909,20.1118356 19.0279926,21.4812088 C20.1456943,22.8561913 20.7045451,24.6543262 20.7045451,26.8794699 C20.7045451,29.0706072 20.1551842,30.8224653 19.0568138,32.1396017 M26.7826631,15.7583088 C24.4773155,13.0427009 21.4472192,11.6870004 17.6881565,11.6870004 L17.597475,11.6870004 C14.2225783,11.7059318 11.0318563,13.2123826 8.76798313,15.7102791 L7.52410065,16.967466 L4.43601039,12.3015706 L0,12.3015706 L0,51.6340625 L9.15214915,47.4077969 L9.15214915,37.6230543 C10.2740686,38.8269527 11.4806943,39.7335577 12.7688631,40.3330529 C14.0619526,40.9371056 15.6052948,41.2396578 17.3995926,41.2396578 C21.1727145,41.2396578 24.2590474,39.8650259 26.6547249,37.1122563 C29.0451304,34.3636937 30.2436721,30.831931 30.2436721,26.5208246 C30.2436721,22.0579161 29.0890652,18.4739167 26.7826631,15.7583088" id="Fill-13" fill="#FFFFFF"></path>
            <path d="M35.0410024,40.4045716 L44.1917456,40.4045716 L44.1917456,12.1865797 C38.8548958,13.3245688 35.0410024,18.0286776 35.0410024,23.4725144 L35.0410024,40.4045716 Z" id="Fill-14" fill="#FFFFFF"></path>
            <path d="M39.8393871,0 C38.4253891,0 37.2170059,0.50098163 36.2135347,1.50224372 C35.2083062,2.50455757 34.7060434,3.70985836 34.7060434,5.12024961 C34.7060434,6.49242743 35.2181476,7.67143458 36.2409501,8.65341467 C37.2637526,9.63679708 38.4816256,10.128313 39.8956237,10.128313 C41.3085674,10.128313 42.508515,9.63679708 43.4940608,8.65341467 C44.479958,7.67143458 44.9727309,6.47454775 44.9727309,5.0641565 C44.9727309,3.654817 44.479958,2.45793016 43.4940608,1.47489833 C42.508515,0.491515916 41.2906419,0 39.8393871,0" id="Fill-15" fill="#FFFFFF"></path>
            <polygon id="Fill-16" fill="#FFFFFF" points="78.4500054 12.3015706 62.494638 33.1215818 56.9121047 40.4045716 45.8103042 40.4045716 56.6896188 25.9907446 46.5354044 12.3015706 57.3061121 12.3015706 62.5139693 18.992778 67.7351827 12.3015706"></polygon>
            <polygon id="Fill-17" fill="#FFFFFF" points="79.1733482 40.4031693 68.0715477 40.4031693 64.933196 36.3055672 70.5719659 28.9475529"></polygon>
            <path d="M80.8499007,40.4045716 L89.999238,40.4045716 L89.999238,12.1865797 C84.6623882,13.3245688 80.8499007,18.0286776 80.8499007,23.4725144 L80.8499007,40.4045716 Z" id="Fill-18" fill="#FFFFFF"></path>
            <path d="M131.866305,34.1130276 C130.452307,34.1130276 129.243924,34.6143598 128.240452,35.6166737 C127.235224,36.6179358 126.732961,37.8242883 126.732961,39.2336278 C126.732961,40.607208 127.245065,41.7862151 128.267868,42.7681952 C129.29067,43.751227 130.508543,44.2430935 131.922541,44.2430935 C133.335485,44.2430935 134.535433,43.751227 135.52133,42.7681952 C136.50547,41.7862151 137,40.5893283 137,39.1785865 C137,37.7681952 136.50547,36.5727107 135.52133,35.587926 C134.535433,34.6062965 133.31756,34.1130276 131.866305,34.1130276" id="Fill-19" fill="#93F4EA"></path>
            <path d="M102.944895,24.9992988 C102.944895,23.2053709 103.679485,21.5811247 105.147259,20.1405834 C106.6189,18.6958351 108.281745,17.9781938 110.14212,17.9781938 C112.522684,17.9781938 114.270587,18.8325621 115.386531,20.5377927 L103.238731,26.742743 C103.039794,25.9963539 102.944895,25.4157902 102.944895,24.9992988 M110.757208,34.50603 C109.975871,34.50603 109.227573,34.3405553 108.521804,34.0050484 C107.816036,33.6695414 107.017125,33.1135184 106.121909,32.3341747 L124.647287,22.874071 C123.865951,20.9718132 123.142608,19.4695695 122.473744,18.3697939 C121.80242,17.2686159 120.965198,16.2733137 119.95997,15.3803814 C117.134434,12.7685458 113.748642,11.465082 109.805756,11.465082 C105.601721,11.465082 102.059169,12.9249053 99.1759907,15.8431496 C96.2928124,18.7613939 94.8538593,22.3359276 94.8538593,26.571659 C94.8538593,30.7758379 96.2928124,34.2981349 99.1759907,37.1410041 C102.059169,39.9838732 105.605587,41.4054831 109.805756,41.4054831 C111.704442,41.4054831 113.574308,41.0506942 115.415353,40.3470761 C117.258155,39.6445099 118.810987,38.6993409 120.073849,37.5094657 L122.361271,34.9498668 L116.225511,31.2235311 C114.587621,33.4104614 112.764502,34.50603 110.757208,34.50603" id="Fill-20" fill="#FFFFFF"></path>
          </g>
        </g>
      </g>
    </g>
  </g>
</svg>
